<?xml version="1.0" encoding="UTF-8" standalone="no"?>
<!DOCTYPE svg PUBLIC "-//W3C//DTD SVG 1.1//EN"
 "http://www.w3.org/Graphics/SVG/1.1/DTD/svg11.dtd">
<!-- Generated by graphviz version 2.26.3 (20100126.1600)
 -->
<!-- Title: StackFSM Pages: 1 -->
<svg width="475pt" height="354pt"
 viewBox="0.00 0.00 475.00 354.00" xmlns="http://www.w3.org/2000/svg" xmlns:xlink="http://www.w3.org/1999/xlink">
<g id="graph1" class="graph" transform="scale(1 1) rotate(0) translate(4 350)">
<title>StackFSM</title>
<polygon fill="white" stroke="white" points="-4,5 -4,-350 472,-350 472,5 -4,5"/>
<!-- 0 -->
<g id="node1" class="node"><title>0</title>
<a xlink:title="{&#39;Stack&#39;: {&#39;stack&#39;: []}}">
<ellipse fill="lightgray" stroke="black" cx="233" cy="-323" rx="27" ry="18.3848"/>
<ellipse fill="none" stroke="black" cx="233" cy="-323" rx="31" ry="22.3848"/>
<text text-anchor="middle" x="233" y="-319.4" font-family="Times Roman,serif" font-size="14.00">0</text>
</a>
</g>
<!-- 1 -->
<g id="node2" class="node"><title>1</title>
<a xlink:title="{&#39;Stack&#39;: {&#39;stack&#39;: [2]}}">
<ellipse fill="white" stroke="black" cx="156" cy="-223" rx="27" ry="18.3848"/>
<ellipse fill="none" stroke="black" cx="156" cy="-223" rx="31" ry="22.3848"/>
<text text-anchor="middle" x="156" y="-219.4" font-family="Times Roman,serif" font-size="14.00">1</text>
</a>
</g>
<!-- 0&#45;&gt;1 -->
<g id="edge2" class="edge"><title>0&#45;&gt;1</title>
<a xlink:title="Push(2,)">
<path fill="none" stroke="black" d="M203.024,-316.528C172.148,-309.183 127.144,-296.344 117,-282 108.763,-270.352 116.036,-257.124 126.438,-246.149"/>
<polygon fill="black" stroke="black" points="129.16,-248.39 133.986,-238.959 124.331,-243.322 129.16,-248.39"/>
</a>
<text text-anchor="middle" x="146" y="-269.4" font-family="Times Roman,serif" font-size="14.00">Push(2,)</text>
</g>
<!-- 2 -->
<g id="node3" class="node"><title>2</title>
<a xlink:title="{&#39;Stack&#39;: {&#39;stack&#39;: [1]}}">
<ellipse fill="white" stroke="black" cx="345" cy="-223" rx="27" ry="18.3848"/>
<ellipse fill="none" stroke="black" cx="345" cy="-223" rx="31" ry="22.3848"/>
<text text-anchor="middle" x="345" y="-219.4" font-family="Times Roman,serif" font-size="14.00">2</text>
</a>
</g>
<!-- 0&#45;&gt;2 -->
<g id="edge4" class="edge"><title>0&#45;&gt;2</title>
<a xlink:title="Push(1,)">
<path fill="none" stroke="black" d="M243.305,-301.775C249.965,-289.637 259.524,-274.739 271,-264 281.959,-253.744 295.961,-245.142 308.83,-238.509"/>
<polygon fill="black" stroke="black" points="310.51,-241.583 317.941,-234.031 307.423,-235.301 310.51,-241.583"/>
</a>
<text text-anchor="middle" x="300" y="-269.4" font-family="Times Roman,serif" font-size="14.00">Push(1,)</text>
</g>
<!-- 1&#45;&gt;0 -->
<g id="edge6" class="edge"><title>1&#45;&gt;0</title>
<a xlink:title="Pop()/2">
<path fill="none" stroke="black" d="M169.763,-243.256C177.763,-254.792 188.177,-269.411 198,-282 201.526,-286.519 205.369,-291.223 209.175,-295.764"/>
<polygon fill="black" stroke="black" points="206.766,-298.334 215.908,-303.688 212.1,-293.801 206.766,-298.334"/>
</a>
<text text-anchor="middle" x="223" y="-269.4" font-family="Times Roman,serif" font-size="14.00">Pop()/2</text>
</g>
<!-- 3 -->
<g id="node4" class="node"><title>3</title>
<a xlink:title="{&#39;Stack&#39;: {&#39;stack&#39;: [2, 2]}}">
<ellipse fill="white" stroke="black" cx="71" cy="-123" rx="27" ry="18.3848"/>
<ellipse fill="none" stroke="black" cx="71" cy="-123" rx="31" ry="22.3848"/>
<text text-anchor="middle" x="71" y="-119.4" font-family="Times Roman,serif" font-size="14.00">3</text>
</a>
</g>
<!-- 1&#45;&gt;3 -->
<g id="edge8" class="edge"><title>1&#45;&gt;3</title>
<a xlink:title="Push(2,)">
<path fill="none" stroke="black" d="M125.546,-218.598C87.7253,-212.437 26.5226,-199.944 13,-182 1.55965,-166.819 17.4487,-151.566 35.4678,-140.373"/>
<polygon fill="black" stroke="black" points="37.4698,-143.258 44.3743,-135.222 33.9654,-137.198 37.4698,-143.258"/>
</a>
<text text-anchor="middle" x="42" y="-169.4" font-family="Times Roman,serif" font-size="14.00">Push(2,)</text>
</g>
<!-- 4 -->
<g id="node5" class="node"><title>4</title>
<a xlink:title="{&#39;Stack&#39;: {&#39;stack&#39;: [1, 2]}}">
<ellipse fill="orange" stroke="black" cx="188" cy="-123" rx="27" ry="18.3848"/>
<ellipse fill="none" stroke="black" cx="188" cy="-123" rx="31" ry="22.3848"/>
<text text-anchor="middle" x="188" y="-119.4" font-family="Times Roman,serif" font-size="14.00">4</text>
</a>
</g>
<!-- 1&#45;&gt;4 -->
<g id="edge10" class="edge"><title>1&#45;&gt;4</title>
<a xlink:title="Push(1,)">
<path fill="none" stroke="black" d="M158.639,-200.476C160.337,-189.309 162.996,-175.735 167,-164 168.235,-160.381 169.741,-156.684 171.374,-153.064"/>
<polygon fill="black" stroke="black" points="174.669,-154.292 175.894,-143.768 168.373,-151.231 174.669,-154.292"/>
</a>
<text text-anchor="middle" x="196" y="-169.4" font-family="Times Roman,serif" font-size="14.00">Push(1,)</text>
</g>
<!-- 2&#45;&gt;0 -->
<g id="edge12" class="edge"><title>2&#45;&gt;0</title>
<a xlink:title="Pop()/1">
<path fill="none" stroke="black" d="M343.559,-245.674C341.726,-257.69 337.708,-271.991 329,-282 314.616,-298.533 292.401,-308.595 272.963,-314.611"/>
<polygon fill="black" stroke="black" points="271.776,-311.309 263.108,-317.4 273.683,-318.044 271.776,-311.309"/>
</a>
<text text-anchor="middle" x="363" y="-269.4" font-family="Times Roman,serif" font-size="14.00">Pop()/1</text>
</g>
<!-- 5 -->
<g id="node6" class="node"><title>5</title>
<a xlink:title="{&#39;Stack&#39;: {&#39;stack&#39;: [2, 1]}}">
<ellipse fill="orange" stroke="black" cx="340" cy="-123" rx="27" ry="18.3848"/>
<ellipse fill="none" stroke="black" cx="340" cy="-123" rx="31" ry="22.3848"/>
<text text-anchor="middle" x="340" y="-119.4" font-family="Times Roman,serif" font-size="14.00">5</text>
</a>
</g>
<!-- 2&#45;&gt;5 -->
<g id="edge14" class="edge"><title>2&#45;&gt;5</title>
<a xlink:title="Push(2,)">
<path fill="none" stroke="black" d="M342.474,-200.468C341.891,-194.474 341.343,-187.998 341,-182 340.514,-173.493 340.238,-164.285 340.087,-155.73"/>
<polygon fill="black" stroke="black" points="343.587,-155.664 339.959,-145.71 336.587,-155.753 343.587,-155.664"/>
</a>
<text text-anchor="middle" x="370" y="-169.4" font-family="Times Roman,serif" font-size="14.00">Push(2,)</text>
</g>
<!-- 6 -->
<g id="node7" class="node"><title>6</title>
<a xlink:title="{&#39;Stack&#39;: {&#39;stack&#39;: [1, 1]}}">
<ellipse fill="orange" stroke="black" cx="421" cy="-123" rx="27" ry="18.3848"/>
<ellipse fill="none" stroke="black" cx="421" cy="-123" rx="31" ry="22.3848"/>
<text text-anchor="middle" x="421" y="-119.4" font-family="Times Roman,serif" font-size="14.00">6</text>
</a>
</g>
<!-- 2&#45;&gt;6 -->
<g id="edge16" class="edge"><title>2&#45;&gt;6</title>
<a xlink:title="Push(1,)">
<path fill="none" stroke="black" d="M369.297,-208.906C379.614,-201.915 391.066,-192.676 399,-182 404.938,-174.01 409.436,-164.239 412.766,-154.965"/>
<polygon fill="black" stroke="black" points="416.176,-155.797 415.934,-145.205 409.518,-153.635 416.176,-155.797"/>
</a>
<text text-anchor="middle" x="438" y="-169.4" font-family="Times Roman,serif" font-size="14.00">Push(1,)</text>
</g>
<!-- 3&#45;&gt;1 -->
<g id="edge18" class="edge"><title>3&#45;&gt;1</title>
<a xlink:title="Pop()/2">
<path fill="none" stroke="black" d="M82.5142,-143.929C89.4495,-155.682 98.8807,-170.294 109,-182 114.377,-188.22 120.7,-194.358 126.934,-199.915"/>
<polygon fill="black" stroke="black" points="124.843,-202.733 134.705,-206.605 129.41,-197.428 124.843,-202.733"/>
</a>
<text text-anchor="middle" x="134" y="-169.4" font-family="Times Roman,serif" font-size="14.00">Pop()/2</text>
</g>
<!-- 7 -->
<g id="node8" class="node"><title>7</title>
<a xlink:title="{&#39;Stack&#39;: {&#39;stack&#39;: [2, 2, 2]}}">
<ellipse fill="orange" stroke="black" cx="31" cy="-23" rx="27" ry="18.3848"/>
<ellipse fill="none" stroke="black" cx="31" cy="-23" rx="31" ry="22.3848"/>
<text text-anchor="middle" x="31" y="-19.4" font-family="Times Roman,serif" font-size="14.00">7</text>
</a>
</g>
<!-- 3&#45;&gt;7 -->
<g id="edge20" class="edge"><title>3&#45;&gt;7</title>
<a xlink:title="Push(2,)">
<path fill="none" stroke="black" d="M49.7629,-106.407C42.7601,-99.6655 35.7974,-91.2731 32,-82 28.6515,-73.8231 27.4458,-64.4589 27.3191,-55.6356"/>
<polygon fill="black" stroke="black" points="30.8179,-55.7248 27.6023,-45.6298 23.8207,-55.5267 30.8179,-55.7248"/>
</a>
<text text-anchor="middle" x="61" y="-69.4" font-family="Times Roman,serif" font-size="14.00">Push(2,)</text>
</g>
<!-- 8 -->
<g id="node9" class="node"><title>8</title>
<a xlink:title="{&#39;Stack&#39;: {&#39;stack&#39;: [1, 2, 2]}}">
<ellipse fill="orange" stroke="black" cx="112" cy="-23" rx="27" ry="18.3848"/>
<ellipse fill="none" stroke="black" cx="112" cy="-23" rx="31" ry="22.3848"/>
<text text-anchor="middle" x="112" y="-19.4" font-family="Times Roman,serif" font-size="14.00">8</text>
</a>
</g>
<!-- 3&#45;&gt;8 -->
<g id="edge22" class="edge"><title>3&#45;&gt;8</title>
<a xlink:title="Push(1,)">
<path fill="none" stroke="black" d="M81.3722,-101.435C84.2644,-95.2067 87.3406,-88.371 90,-82 93.6715,-73.2042 97.394,-63.5562 100.707,-54.6566"/>
<polygon fill="black" stroke="black" points="104.087,-55.6057 104.249,-45.0121 97.5159,-53.1926 104.087,-55.6057"/>
</a>
<text text-anchor="middle" x="127" y="-69.4" font-family="Times Roman,serif" font-size="14.00">Push(1,)</text>
</g>
<!-- 4&#45;&gt;1 -->
<g id="edge24" class="edge"><title>4&#45;&gt;1</title>
<a xlink:title="Pop()/1">
<path fill="none" stroke="black" d="M209.329,-139.554C221.689,-151.254 233.312,-167.393 225,-182 218.081,-194.16 205.975,-203.089 193.815,-209.45"/>
<polygon fill="black" stroke="black" points="192.126,-206.377 184.591,-213.825 195.126,-212.702 192.126,-206.377"/>
</a>
<text text-anchor="middle" x="253" y="-169.4" font-family="Times Roman,serif" font-size="14.00">Pop()/1</text>
</g>
</g>
</svg>
